<svg xmlns="http://www.w3.org/2000/svg" width="100px" height="100px" viewBox="0 0 182.95 182.95">
    <defs>
        <style>
            @media (prefers-color-scheme: dark) {
                rect {
                    fill: transparent;
                }
                path {
                    transform: scale(1.4);
                    transform-origin: center center;
                }
            }
        </style>
        <linearGradient id="gradient-green" gradientUnits="userSpaceOnUse" x1="43.97" y1="55.46" x2="88.29" y2="100.24">
            <stop offset="0" style="stop-opacity:1; stop-color:#EFFFF2"/>
            <stop offset="0.8" style="stop-opacity:1; stop-color:#CDFFD5"/>
            <stop offset="1" style="stop-opacity:1; stop-color:#ABFFB8"/>
        </linearGradient>
        <linearGradient id="gradient-blue" gradientUnits="userSpaceOnUse" x1="87.91" y1="97.3" x2="129.98" y2="120.67">
            <stop offset="0" style="stop-opacity:1; stop-color:#EEFFFB"/>
            <stop offset="0.8" style="stop-opacity:1; stop-color:#B7FFF0"/>
            <stop offset="1" style="stop-opacity:1; stop-color:#7FFFE5"/>
        </linearGradient>
    </defs>
    <g>
        <rect fill="black" width="182.95" height="182.95" rx="38.92" ry="38.92"/>
        <path fill="url(#gradient-green)" d="M62.15 50.6l7.78 0 7.79 0 0 7.79 0 50.6c0,6.45 -5.23,11.68 -11.68,11.68 -5.67,0 -10.52,-4.07 -11.5,-9.65l7.67 -1.35c0.32,1.82 1.91,3.21 3.83,3.21 2.15,0 3.89,-1.74 3.89,-3.89l0 -50.6 -7.78 0 0 -7.79zm7.78 -15.57l7.79 0 0 7.79 -7.79 0 0 -7.79z"/>
        <path fill="url(#gradient-blue)" d="M108.94 112.88c-10.48,-2.57 -19.46,-8.71 -19.46,-19.46 0,-10.75 8.72,-19.46 19.46,-19.46 9.45,0 17.53,6.78 19.17,16.08l-7.66 1.35c-0.96,-5.48 -5.75,-9.65 -11.51,-9.65 -6.44,0 -11.67,5.23 -11.67,11.68 0,6.45 5.45,9.99 11.67,11.68 10.32,2.79 19.47,8.71 19.47,19.46 0,10.75 -8.72,19.46 -19.47,19.46 -9.44,0 -17.52,-6.78 -19.16,-16.08l7.66 -1.35c0.96,5.48 5.75,9.65 11.5,9.65 6.45,0 11.68,-5.23 11.68,-11.68 0,-6.45 -5.28,-10.11 -11.68,-11.68z"/>
    </g>
</svg>
